<svg xmlns="http://www.w3.org/2000/svg" viewBox="0 0 423.4 193.09"><defs><style>.cls-1{font-size:48px;font-family:Poppins-Bold, Poppins;font-weight:700;letter-spacing:0.1em;}.cls-1,.cls-2{fill:#f3b1af;}.cls-3{fill:#b0e7d3;}.cls-3,.cls-4{opacity:0.3;}.cls-4{fill:#f8d7ab;}.cls-5{font-size:7px;font-family:Poppins-Regular, Poppins;}.cls-5,.cls-6{fill:#242828;}.cls-6{font-size:12px;font-family:Poppins-Medium, Poppins;font-weight:500;}</style></defs><g id="Layer_2" data-name="Layer 2"><g id="Others"><text class="cls-1" transform="translate(0 40.92)">FOOD IDENTITY</text><path class="cls-2" d="M215.39,160.17c1.16-1.26,2.28-2.46,3.38-3.68A92.42,92.42,0,0,1,233,143.3c6.73-4.87,14.29-8.11,23.47-7.77a36.55,36.55,0,0,1,18,5.06,20.19,20.19,0,0,1,10,14.71c1.1,7.28-.92,14.1-4.81,20.56a34.44,34.44,0,0,1-11.25,12c-7.36,4.58-15.64,6.06-24.61,4.88a39.72,39.72,0,0,1-22.4-10.93c-4-3.69-7.47-7.71-11.19-11.57l-.87-.92c-2.28,2.3-4.48,4.56-6.73,6.78a68,68,0,0,1-18.76,13.41c-11.29,5.35-25.59,4.56-35.71-2.26a20.19,20.19,0,0,1-9.36-15.41c-.81-8.74,2.39-16.56,8.11-23.75a30.43,30.43,0,0,1,14.42-10.36,38.09,38.09,0,0,1,27.94,1.05c8.17,3.49,14.3,8.93,20,14.8C211.28,155.69,213.26,157.89,215.39,160.17Zm-7.07,7.76c-1.39-1.52-2.68-3-4-4.39-5-5.32-10.37-10.32-17.18-14.06-11.23-6.16-22.87-6.7-34.8-1.52-4.18,1.82-7.15,4.4-7.74,8.64-1.13,8.17,1.22,15.3,8.49,21,7.8,6.12,21.95,9.26,34.32,4.37C195.69,178.72,202.17,173.62,208.32,167.93Zm7.94-6.65a83.07,83.07,0,0,0,17.12,16.35c11.25,7.64,23.53,8.94,36.69,3.83,5-2,8.28-5.17,9-9.92a20.77,20.77,0,0,0-3.72-15.12c-7.64-11.28-25.47-14.85-38.71-9.9C228.11,149.71,222,155.28,216.26,161.28Z"/><path class="cls-3" d="M208.32,167.93c-6.15,5.69-12.63,10.79-20.92,14.06-12.37,4.89-26.52,1.75-34.32-4.37-7.27-5.72-9.62-12.85-8.49-21,.59-4.24,3.56-6.82,7.74-8.64,11.93-5.18,23.57-4.64,34.8,1.52,6.81,3.74,12.19,8.74,17.18,14.06C205.64,165,206.93,166.41,208.32,167.93Z"/><path class="cls-4" d="M216.26,161.28c5.74-6,11.85-11.57,20.39-14.76,13.24-5,31.07-1.38,38.71,9.9a20.77,20.77,0,0,1,3.72,15.12c-.73,4.75-4,8-9,9.92-13.16,5.11-25.44,3.81-36.69-3.83A83.07,83.07,0,0,1,216.26,161.28Z"/><text class="cls-5" transform="translate(219.56 167.34)">driven by money</text><text class="cls-5" transform="translate(145.79 167.34)">driven by nature</text><text class="cls-6" transform="translate(130.16 74.09)">Professor: Paolo Ciuccarelli<tspan x="-31.47" y="18.4">Future Food Institute: Jose De La Rosa</tspan><tspan x="-6.28" y="36.8">Student: Gefei Tian, Meixin Yu</tspan></text></g></g></svg>