<svg xmlns="http://www.w3.org/2000/svg" viewBox="0 0 1270.72 476.89"><defs><style>.cls-1,.cls-3,.cls-5,.cls-6{fill:#f3b1af;}.cls-1,.cls-17,.cls-7{opacity:0.2;}.cls-11,.cls-16,.cls-19,.cls-2,.cls-22{fill:none;stroke-linecap:round;stroke-linejoin:round;}.cls-2{stroke:#f3b1af;}.cls-11,.cls-19,.cls-2{stroke-width:2px;}.cls-4{font-size:7px;}.cls-13,.cls-15,.cls-4{fill:#242828;}.cls-15,.cls-18,.cls-4,.cls-8{font-family:Poppins-Regular, Poppins;}.cls-13,.cls-5{font-size:12px;font-family:Poppins-SemiBold, Poppins;font-weight:600;}.cls-6{font-size:18px;font-family:Poppins-Bold, Poppins;font-weight:700;letter-spacing:0.1em;}.cls-12,.cls-14,.cls-7,.cls-8{fill:#f8d7ab;}.cls-15,.cls-18,.cls-8{font-size:10px;}.cls-14,.cls-20,.cls-9{opacity:0.5;}.cls-10{fill:#fff;}.cls-11,.cls-16{stroke:#f8d7ab;}.cls-16,.cls-22{stroke-width:3px;}.cls-17,.cls-18,.cls-20,.cls-21{fill:#b0e7d3;}.cls-19,.cls-22{stroke:#b0e7d3;}</style></defs><g id="Layer_2" data-name="Layer 2"><g id="middle"><circle class="cls-1" cx="635.32" cy="230.73" r="141.54"/><path class="cls-2" d="M772.86,133.45c-37.13-42.22-96.77-63-156.57-48.92-55.55,13.09-97.55,53.05-114.76,102.25"/><polygon class="cls-3" points="496.32 179.22 502.41 184.47 510.43 183.72 498.03 198.19 496.32 179.22"/><path class="cls-2" d="M498,333.92c37.13,42.22,96.77,63,156.56,48.92,55.56-13.09,97.56-53,114.76-102.25"/><polygon class="cls-3" points="774.57 288.15 768.47 282.9 760.46 283.65 772.86 269.18 774.57 288.15"/><text class="cls-4" transform="translate(564.78 256.08)">Food identities provide a representation of <tspan x="1.38" y="12.4">the diversity of place-based cultures who </tspan><tspan x="4.75" y="24.8">self-organize within the city Foodscape. </tspan></text><text class="cls-5" transform="translate(550.02 366.5) rotate(16.97)">DEFINE</text><text class="cls-5" transform="translate(698.97 99.96) rotate(27.93)">CHOOSE</text><text class="cls-6" transform="translate(561.04 237.42)">FOOD IDENTITY</text></g><g id="right"><path class="cls-7" d="M773.82,281.72c1.12,2.2,6.29,10.42,9.6,16,27.13,45.51,75.06,109.43,121.46,139.8,83.49,54.64,187.14,52.27,264.88-6.19,122.18-91.86,128-269,10.63-367.09-61.62-51.48-133-67.26-210.9-45.08-54.64,15.56-97.53,50-136,90.29-20.5,21.47-47.84,40.26-59.81,42.28"/><text class="cls-8" transform="matrix(0.27, -0.96, 0.96, 0.27, 1255.75, 308.1)">S</text><text class="cls-8" transform="matrix(0.24, -0.97, 0.97, 0.24, 1257.31, 302.5)">o</text><text class="cls-8" transform="translate(1258.85 296.31) rotate(-77.51)">c</text><text class="cls-8" transform="matrix(0.2, -0.98, 0.98, 0.2, 1260.14, 290.41)">i</text><text class="cls-8" transform="translate(1260.64 288.04) rotate(-79.68)">a</text><text class="cls-8" transform="translate(1261.83 281.42) rotate(-80.8)">l</text><text class="cls-8" transform="matrix(0.15, -0.99, 0.99, 0.15, 1262.22, 279.01)"> </text><text class="cls-8" transform="translate(1262.62 276.4) rotate(-82.39)">E</text><text class="cls-8" transform="matrix(0.11, -0.99, 0.99, 0.11, 1263.31, 271.34)">n</text><text class="cls-8" transform="matrix(0.08, -1, 1, 0.08, 1263.99, 264.99)">v</text><text class="cls-8" transform="translate(1264.43 259.45) rotate(-86.26)">i</text><text class="cls-8" transform="matrix(0.05, -1, 1, 0.05, 1264.6, 257)">r</text><text class="cls-8" transform="matrix(0.03, -1, 1, 0.03, 1264.8, 253.33)">o</text><text class="cls-8" transform="matrix(0, -1, 1, 0, 1265, 246.97)">n</text><text class="cls-8" transform="translate(1265.05 240.62) rotate(-91.89)">m</text><text class="cls-8" transform="translate(1264.68 230.37) rotate(-93.92)">e</text><text class="cls-8" transform="matrix(-0.1, -1, 1, -0.1, 1264.26, 224.23)">n</text><text class="cls-8" transform="translate(1263.64 217.88) rotate(-96.71)">t</text><path class="cls-7" d="M772.78,279.64c1.07,2.12,6.05,10,9.24,15.39,26.12,43.81,72.25,105.34,116.92,134.58,80.37,52.59,180.15,50.31,255-6,117.62-88.43,123.21-259,10.23-353.37-59.31-49.56-128-64.75-203-43.4-52.6,15-93.89,48.17-130.89,86.92-19.73,20.66-46,38.76-57.58,40.7C772.67,154.5,772.78,256.53,772.78,279.64Z"/><g class="cls-9"><path class="cls-10" d="M849,206.69H866.9l13.41,34.68,13.1-34.68h17.88v53.39H896.44V230.62l-10.07,29.46H874L863.8,230.39v29.69H849Z"/><path class="cls-10" d="M954.45,260.61c-15.15,0-27.42-11.36-27.42-27.42s12.27-27.34,27.42-27.34,27.34,11.29,27.34,27.34S969.59,260.61,954.45,260.61Zm0-13.78c7.65,0,12.27-5.38,12.27-13.64s-4.62-13.7-12.27-13.7-12.27,5.3-12.27,13.7S946.72,246.83,954.45,246.83Z"/><path class="cls-10" d="M1047,206.69v53.39h-14.84l-19.77-29.84v29.84H997.53V206.69h14.85l19.77,30.22V206.69Z"/><path class="cls-10" d="M1098.71,218.58H1079.4v8.71h17v11.28h-17v9.62h19.31v11.89h-34.16V206.69h34.16Z"/><path class="cls-10" d="M1111.2,206.69h17l9.39,20.6,9.39-20.6h16.74l-18.78,36.43v17H1130v-17Z"/></g><path class="cls-11" d="M772.86,133.44c51.35,43.65,97-20.67,162.93-58.3,63.76-36.37,127.91-33.35,188,7.26,61.4,41.47,88.56,101.44,79.26,175.36-11.72,93.16-88.38,160-176.8,159.8-51.17.81-90.41-19.57-126.26-47.73-47.13-37-85.42-82.61-122.52-129.2"/><rect class="cls-12" x="972.16" y="399" width="107.03" height="23.13" rx="11.57"/><text class="cls-13" transform="translate(999.28 413.66)">Demand</text><rect class="cls-12" x="972.16" y="43.54" width="107.03" height="23.13" rx="11.57"/><text class="cls-13" transform="translate(983.89 57.81)">Consumption</text><path class="cls-14" d="M904.51,123.76h107a0,0,0,0,1,0,0v60.89a11.89,11.89,0,0,1-11.89,11.89H916.4a11.89,11.89,0,0,1-11.89-11.89V123.76A0,0,0,0,1,904.51,123.76Z"/><rect class="cls-12" x="904.51" y="113.79" width="107.03" height="23.13" rx="11.57"/><text class="cls-15" transform="translate(914.16 129.09)">Culture Exchange</text><text class="cls-4" transform="translate(936.67 150.49)">Family Bond<tspan x="-1.12" y="12.4">Diet Nutrition</tspan><tspan x="-8.11" y="24.8">Racial Difference</tspan><tspan x="-13.5" y="37.2">Celebrate Occasion</tspan></text><path class="cls-14" d="M1034.18,267.8h107a0,0,0,0,1,0,0v60.89a11.89,11.89,0,0,1-11.89,11.89h-83.25a11.89,11.89,0,0,1-11.89-11.89V267.8A0,0,0,0,1,1034.18,267.8Z" transform="translate(2175.39 608.37) rotate(180)"/><path class="cls-14" d="M904.51,233.68h107a0,0,0,0,1,0,0V283a11.89,11.89,0,0,1-11.89,11.89H916.4A11.89,11.89,0,0,1,904.51,283V233.68A0,0,0,0,1,904.51,233.68Z"/><rect class="cls-12" x="904.51" y="222.11" width="107.03" height="23.13" rx="11.57"/><text class="cls-13" transform="translate(935.37 237.42)">Culture</text><text class="cls-4" transform="translate(944.24 258.81)">Packing<tspan x="0.01" y="12.4">Storage</tspan><tspan x="-1.25" y="24.8">Humane</tspan></text><line class="cls-16" x1="962.44" y1="110.72" x2="1021.26" y2="69.75"/><polygon class="cls-12" points="966.42 112.01 963.35 110.08 962.61 106.54 958.03 113.79 966.42 112.01"/><polygon class="cls-12" points="1021.1 73.93 1020.35 70.38 1017.29 68.46 1025.67 66.68 1021.1 73.93"/><line class="cls-16" x1="1104.44" y1="201.16" x2="1135.46" y2="230.02"/><polygon class="cls-12" points="1104.02 205.32 1105.25 201.91 1108.56 200.44 1100.5 197.5 1104.02 205.32"/><polygon class="cls-12" points="1131.34 230.74 1134.65 229.26 1135.88 225.86 1139.4 233.68 1131.34 230.74"/><line class="cls-16" x1="1030.08" y1="395.3" x2="1088.91" y2="354.33"/><polygon class="cls-12" points="1034.06 396.6 1030.99 394.67 1030.25 391.13 1025.67 398.38 1034.06 396.6"/><polygon class="cls-12" points="1088.74 358.51 1088 354.97 1084.93 353.04 1093.32 351.26 1088.74 358.51"/><text class="cls-8" transform="translate(852.25 345.55) rotate(43.28)">Deside</text><text class="cls-8" transform="matrix(0.67, -0.74, 0.74, 0.67, 1154.04, 382.99)">Affect</text><text class="cls-8" transform="matrix(0.82, -0.57, 0.57, 0.82, 1031.11, 385.45)">Based on</text><text class="cls-8" transform="matrix(0.64, 0.76, -0.76, 0.64, 1157.92, 100.56)">Affect</text><text class="cls-8" transform="matrix(0.8, -0.59, 0.59, 0.8, 866.37, 115.96)">What we want</text><rect class="cls-14" x="743.44" y="144.02" width="55.65" height="117.48" rx="27.83"/><circle class="cls-12" cx="771.27" cy="233.68" r="27.83"/><text class="cls-13" transform="translate(747.91 235.34)">Identity</text><rect class="cls-12" x="1139.4" y="222.11" width="107.03" height="23.13" rx="11.57"/><text class="cls-13" transform="translate(1165.93 237.42)">Retailing</text><rect class="cls-12" x="1034.18" y="328.37" width="107.03" height="23.13" rx="11.57"/><text class="cls-15" transform="translate(1060.79 343.03)">Preference</text><text class="cls-4" transform="translate(1075.37 281.97)">Wealth<tspan x="-15.1" y="12.4">Social Structure</tspan><tspan x="-16.63" y="24.8">Local Production</tspan><tspan x="-13.34" y="37.2">Seasonal Food</tspan></text><path class="cls-14" d="M1047,113.79h107a0,0,0,0,1,0,0v60.89a11.89,11.89,0,0,1-11.89,11.89h-83.25A11.89,11.89,0,0,1,1047,174.68V113.79A0,0,0,0,1,1047,113.79Z" transform="translate(2201.01 300.36) rotate(180)"/><rect class="cls-12" x="1046.99" y="174.36" width="107.03" height="23.13" rx="11.57"/><text class="cls-15" transform="translate(1065.86 189.02)">Food Diversity</text><text class="cls-4" transform="translate(1089.64 127.96)">Farms<tspan x="-10.15" y="12.4">Restaurants</tspan><tspan x="-14.78" y="24.8">Grocery Stores</tspan><tspan x="-6.5" y="37.2">Costumer</tspan></text><text class="cls-4" transform="translate(754.29 169.39)">Individual<tspan x="-3.75" y="12.4">Community</tspan><tspan x="1.75" y="24.8">Regional</tspan></text><polyline class="cls-11" points="816.43 232.82 887.18 232.82 879.38 226.51"/><polyline class="cls-11" points="887.18 238.94 816.43 238.94 824.23 245.25"/><text class="cls-8" transform="translate(840.76 226.51)">From</text><text class="cls-8" transform="translate(838.88 252.51)">Affect</text></g><g id="left"><path class="cls-17" d="M496.9,195.17c-1.12-2.21-6.29-10.43-9.6-16-27.13-45.51-75.06-109.44-121.46-139.8C282.35-15.26,178.7-12.89,101,45.56c-122.18,91.87-128,269-10.63,367.09,61.62,51.49,133,67.27,210.9,45.08,54.64-15.55,97.53-50,136-90.28C457.7,346,485,327.18,497,325.17"/><text class="cls-18" transform="translate(16.94 162.39) rotate(107.18)">P</text><text class="cls-18" transform="translate(15.23 167.91) rotate(105.68)">h</text><text class="cls-18" transform="matrix(-0.25, 0.97, -0.97, -0.25, 13.51, 174.03)">y</text><text class="cls-18" transform="matrix(-0.22, 0.97, -0.97, -0.22, 12.15, 179.43)">s</text><text class="cls-18" transform="translate(11 184.51) rotate(101.94)">i</text><text class="cls-18" transform="translate(10.48 186.88) rotate(100.9)">c</text><text class="cls-18" transform="matrix(-0.16, 0.99, -0.99, -0.16, 9.33, 192.8)">a</text><text class="cls-18" transform="translate(8.26 199.44) rotate(98.2)">l</text><text class="cls-18" transform="translate(7.91 201.85) rotate(97.58)"> </text><text class="cls-18" transform="translate(7.56 204.5) rotate(96.92)"> </text><text class="cls-18" transform="translate(7.23 207.12) rotate(95.96)">E</text><text class="cls-18" transform="translate(6.7 212.19) rotate(94.55)">n</text><text class="cls-18" transform="translate(6.2 218.53) rotate(93.08)">v</text><text class="cls-18" transform="translate(5.91 224.11) rotate(92.09)">i</text><text class="cls-18" transform="translate(5.82 226.54) rotate(91.33)">r</text><text class="cls-18" transform="translate(5.72 230.24) rotate(90.09)">o</text><text class="cls-18" transform="translate(5.71 236.59) rotate(88.51)">n</text><text class="cls-18" transform="translate(5.84 242.95) rotate(86.46)">m</text><text class="cls-18" transform="matrix(0.1, 1, -1, 0.1, 6.5, 253.18)">e</text><text class="cls-18" transform="translate(7.1 259.29) rotate(82.88)">n</text><text class="cls-18" transform="translate(7.9 265.62) rotate(81.64)">t</text><path class="cls-17" d="M496.9,198.19c-1.07-2.12-6-10-9.24-15.38C461.54,139,415.41,77.46,370.74,48.23c-80.37-52.6-180.15-50.32-255,6-117.62,88.43-123.21,259-10.23,353.37,59.31,49.56,128,64.76,203,43.4,52.59-15,93.89-48.16,130.89-86.91,19.73-20.67,46-38.76,57.57-40.7C497,323.34,496.9,221.31,496.9,198.19Z"/><g class="cls-9"><path class="cls-10" d="M146.12,205.85v53.4H131.27l-19.76-29.84v29.84H96.66v-53.4h14.85l19.76,30.22V205.85Z"/><path class="cls-10" d="M197.46,250.54H178.53l-2.88,8.71h-15.6l19.46-53.4h17.12L216,259.25H200.34ZM188,221.91l-5.68,17.27h11.44Z"/><path class="cls-10" d="M227,205.85h43.17v11.82H255.92v41.58H241.08V217.67H227Z"/><path class="cls-10" d="M284.54,205.85h14.77v31c0,5.53,2.5,9,8.11,9s8.25-3.48,8.25-9v-31h14.85v31c0,15.22-10.61,22.95-23.41,22.95s-22.57-7.73-22.57-22.95Z"/><path class="cls-10" d="M371.18,205.85c13.25,0,19.92,7.58,19.92,17.12,0,7-3.79,13-11.74,15.45l12,20.83H374.82l-10.61-19.69h-1.59v19.69H347.78v-53.4ZM370,218.27h-7.35v11.14H370c4,0,6.06-2,6.06-5.61C376,220.47,374,218.27,370,218.27Z"/><path class="cls-10" d="M441.08,217.74H421.77v8.71h17v11.29h-17v9.62h19.31v11.89H406.92v-53.4h34.16Z"/></g><path class="cls-19" d="M498,333.92c-51.35-43.65-97,20.67-162.94,58.3-63.75,36.37-127.91,33.36-188-7.26C85.66,343.49,58.5,283.52,67.8,209.6c11.72-93.16,88.38-160,176.81-159.8C295.78,49,335,69.37,370.87,97.53c47.12,37,85.41,82.61,122.52,129.2"/><rect class="cls-20" x="467.37" y="205.85" width="55.65" height="117.48" rx="27.83"/><circle class="cls-21" cx="495.19" cy="233.68" r="27.83"/><text class="cls-13" transform="translate(480.29 235.34)">Food</text><path class="cls-20" d="M259.1,233.68h107a0,0,0,0,1,0,0V283a11.89,11.89,0,0,1-11.89,11.89H271A11.89,11.89,0,0,1,259.1,283V233.68A0,0,0,0,1,259.1,233.68Z"/><path class="cls-20" d="M24.07,233.68h107a0,0,0,0,1,0,0V283a11.89,11.89,0,0,1-11.89,11.89H36A11.89,11.89,0,0,1,24.07,283V233.68A0,0,0,0,1,24.07,233.68Z"/><path class="cls-20" d="M198.27,349.36h107a0,0,0,0,1,0,0v49.32a11.89,11.89,0,0,1-11.89,11.89H210.16a11.89,11.89,0,0,1-11.89-11.89V349.36A0,0,0,0,1,198.27,349.36Z" transform="translate(503.58 759.93) rotate(180)"/><rect class="cls-21" x="259.1" y="222.11" width="107.03" height="23.13" rx="11.57"/><text class="cls-13" transform="translate(280.52 237.42)">Scalability</text><text class="cls-4" transform="translate(482.29 275.11)">Season<tspan x="-7.86" y="12.4">Geographic</tspan><tspan x="-9.04" y="24.8">Enivronment</tspan></text><text class="cls-4" transform="translate(294.59 258.81)">Food Price<tspan x="-19.26" y="12.4">Local/Non Local Food</tspan><tspan x="-3.9" y="24.8">Environment</tspan></text><path class="cls-20" d="M259.1,125.36h107a0,0,0,0,1,0,0v49.32a11.89,11.89,0,0,1-11.89,11.89H271a11.89,11.89,0,0,1-11.89-11.89V125.36A0,0,0,0,1,259.1,125.36Z"/><rect class="cls-21" x="259.1" y="113.79" width="107.03" height="23.13" rx="11.57"/><text class="cls-15" transform="translate(283.55 129.09)">Technology</text><rect class="cls-21" x="198.27" y="399" width="107.03" height="23.13" rx="11.57"/><text class="cls-13" transform="translate(206.09 413.66)">Transportation</text><rect class="cls-21" x="24.07" y="222.11" width="107.03" height="23.13" rx="11.57"/><text class="cls-13" transform="translate(53.83 237.42)">Process</text><rect class="cls-21" x="198.27" y="43.54" width="107.03" height="23.13" rx="11.57"/><text class="cls-13" transform="translate(218.45 57.81)">Production</text><line class="cls-22" x1="255.96" y1="70.06" x2="305.6" y2="110.4"/><polygon class="cls-21" points="255.82 74.25 256.82 70.77 260.02 69.07 251.79 66.68 255.82 74.25"/><polygon class="cls-21" points="301.54 111.39 304.74 109.7 305.74 106.22 309.77 113.79 301.54 111.39"/><text class="cls-18" transform="translate(275.79 77.91) rotate(39.09)">Rely on</text><text class="cls-18" transform="matrix(0.71, 0.71, -0.71, 0.71, 400.67, 152.09)">Provide</text><text class="cls-18" transform="matrix(0.71, 0.71, -0.71, 0.71, 381.13, 169.08)">Change</text><text class="cls-18" transform="translate(87.2 131.86) rotate(-55.71)">Require</text><text class="cls-18" transform="translate(98.96 362.46) rotate(40.75)">Require</text><text class="cls-18" transform="matrix(0.8, -0.6, 0.6, 0.8, 360.62, 393.55)">What we have</text><text class="cls-4" transform="translate(287.66 150.49)">Agri-Eco Farm<tspan x="3.97" y="12.4">Eco-System</tspan><tspan x="1.53" y="24.8">Sustainability</tspan></text><text class="cls-18" transform="translate(386.05 99.44) rotate(42.83)">From</text><polyline class="cls-19" points="452.13 232.82 381.37 232.82 389.17 226.51"/><polyline class="cls-19" points="381.37 238.94 452.13 238.94 444.33 245.25"/><polyline class="cls-19" points="434.11 195.26 384.07 145.23 394.05 146.28"/><polyline class="cls-19" points="379.74 149.56 429.77 199.59 419.8 198.53"/><text class="cls-18" transform="translate(406.25 226.51)">Offer</text><text class="cls-18" transform="translate(407.41 252.51)">Give</text><text class="cls-4" transform="translate(63.8 258.81)">Packing<tspan x="0.01" y="12.4">Storage</tspan><tspan x="-1.25" y="24.8">Humane</tspan></text><text class="cls-4" transform="translate(236.45 365)">Distance<tspan x="-0.02" y="12.4">Shipping</tspan><tspan x="-6.41" y="24.8">Preservation</tspan></text></g></g></svg>