<?xml version="1.0" standalone="no"?><!DOCTYPE svg PUBLIC "-//W3C//DTD SVG 1.1//EN" "http://www.w3.org/Graphics/SVG/1.1/DTD/svg11.dtd"><svg xmlns:xlink="http://www.w3.org/1999/xlink" version="1.1" style="font-family:'lucida grande', 'lucida sans unicode', arial, helvetica, sans-serif;font-size:12px;" xmlns="http://www.w3.org/2000/svg" width="600" height="400"><desc>Created with Highcharts 4.2.7</desc><defs><clipPath id="highcharts-19"><rect x="1" y="1" width="578" height="336"></rect></clipPath></defs><rect x="10" y="10" width="580" height="338" fill="#ffffff"></rect><rect x="10" y="10" width="580" height="338" stroke="#026FC1" stroke-width="2" fill="none"></rect><g class="highcharts-series-group"><g class="highcharts-series highcharts-series-0" transform="translate(10,10) scale(1 1)"><path fill="#50B432" d="M 289.9720967710938 32.00000284157005 A 137 137 0 1 1 209.35482295461318 58.25093490544393 L 290 169 A 0 0 0 1 0 290 169 Z" stroke="#FFFFFF" stroke-width="1" stroke-linejoin="round" transform="translate(0,0)"></path><path fill="#ED561B" d="M 209.46561232383476 58.17034511636733 A 137 137 0 0 1 289.8097097484842 32.000132154734615 L 290 169 A 0 0 0 0 0 290 169 Z" stroke="#FFFFFF" stroke-width="1" stroke-linejoin="round" transform="translate(0,0)"></path></g><g class="highcharts-markers highcharts-series-0" transform="translate(10,10) scale(1 1)"></g></g><g class="highcharts-data-labels highcharts-series-0" transform="translate(10,10) scale(1 1)" opacity="1"><path fill="none" d="M 346.6058380606163 327.82643822129063 C 341.6058380606163 327.82643822129063 339.1337021056167 320.21798609092934 335.73451516749225 309.7563644116827 L 332.3353282293678 299.294742732436" stroke="#50B432" stroke-width="1"></path><path fill="none" d="M 233.3941619393837 10.173561778709374 C 238.3941619393837 10.173561778709374 240.86629789438337 17.7820139090706 244.26548483250778 28.24363558831729 L 247.6646717706322 38.70525726756398" stroke="#ED561B" stroke-width="1"></path><g style="cursor:pointer;" transform="translate(352,318)"><text x="5" style="font-size:10px;font-weight:bold;font-family:'arial', sans-serif;color:#000;text-shadow:none;fill:#000;text-rendering:geometricprecision;" y="15"><tspan>Ultra-processed foods: 90</tspan></text></g><g style="cursor:pointer;" transform="translate(174,0)"><text x="5" style="font-size:10px;font-weight:bold;font-family:'arial', sans-serif;color:#000;text-shadow:none;fill:#000;text-rendering:geometricprecision;" y="15"><tspan>Other: 10</tspan></text></g></g><g class="highcharts-legend" transform="translate(179,360)"><g><g><g class="highcharts-legend-item" transform="translate(8,3)"><text x="21" style="color:#333;font-size:9pt;font-weight:normal;cursor:pointer;font-family:'lucida grande','lucida sans unicode',arial,helvetica,sans-serif;text-transform:none;fill:#333;" text-anchor="start" y="15"><tspan>Ultra-processed foods</tspan></text><rect x="0" y="4" width="16" height="12" fill="#50B432"></rect></g><g class="highcharts-legend-item" transform="translate(179.515625,3)"><text x="21" y="15" style="color:#333;font-size:9pt;font-weight:normal;cursor:pointer;font-family:'lucida grande','lucida sans unicode',arial,helvetica,sans-serif;text-transform:none;fill:#333;" text-anchor="start">Other</text><rect x="0" y="4" width="16" height="12" fill="#ED561B"></rect></g></g></g></g><g class="highcharts-tooltip" display="none" style="cursor:default;padding:0;pointer-events:none;white-space:nowrap;" transform="translate(0,0)"><path fill="none" d="M 3.5 0.5 L 13.5 0.5 C 16.5 0.5 16.5 0.5 16.5 3.5 L 16.5 13.5 C 16.5 16.5 16.5 16.5 13.5 16.5 L 3.5 16.5 C 0.5 16.5 0.5 16.5 0.5 13.5 L 0.5 3.5 C 0.5 0.5 0.5 0.5 3.5 0.5"  stroke="black" stroke-opacity="0.049999999999999996" stroke-width="5" transform="translate(1, 1)"></path><path fill="none" d="M 3.5 0.5 L 13.5 0.5 C 16.5 0.5 16.5 0.5 16.5 3.5 L 16.5 13.5 C 16.5 16.5 16.5 16.5 13.5 16.5 L 3.5 16.5 C 0.5 16.5 0.5 16.5 0.5 13.5 L 0.5 3.5 C 0.5 0.5 0.5 0.5 3.5 0.5"  stroke="black" stroke-opacity="0.09999999999999999" stroke-width="3" transform="translate(1, 1)"></path><path fill="none" d="M 3.5 0.5 L 13.5 0.5 C 16.5 0.5 16.5 0.5 16.5 3.5 L 16.5 13.5 C 16.5 16.5 16.5 16.5 13.5 16.5 L 3.5 16.5 C 0.5 16.5 0.5 16.5 0.5 13.5 L 0.5 3.5 C 0.5 0.5 0.5 0.5 3.5 0.5"  stroke="black" stroke-opacity="0.15" stroke-width="1" transform="translate(1, 1)"></path><path fill="rgb(249, 249, 249)" fill-opacity=" .85" d="M 3.5 0.5 L 13.5 0.5 C 16.5 0.5 16.5 0.5 16.5 3.5 L 16.5 13.5 C 16.5 16.5 16.5 16.5 13.5 16.5 L 3.5 16.5 C 0.5 16.5 0.5 16.5 0.5 13.5 L 0.5 3.5 C 0.5 0.5 0.5 0.5 3.5 0.5"></path><text x="8" style="font-size:12px;color:#000000;fill:#000000;" y="20"></text></g><text x="590" text-anchor="end" style="cursor:pointer;color:#909090;font-size:9px;fill:#909090;" y="395">meta-chart.com</text></svg>